<?xml version="1.0" encoding="utf-8"?>
<!-- Generator: Adobe Illustrator 19.0.0, SVG Export Plug-In . SVG Version: 6.00 Build 0)  -->
<svg version="1.1" id="Layer_1" xmlns="http://www.w3.org/2000/svg" xmlns:xlink="http://www.w3.org/1999/xlink" x="0px" y="0px"
	 viewBox="-459 141 1000 800" style="enable-background:new -459 141 1000 800;" xml:space="preserve">
<g id="XMLID_1_">
	<g id="XMLID_57_">
		<path id="XMLID_61_" d="M-259,141h-200v600l0,0c0,110.5,89.5,200,200,200h167h-0.3C-186.9,925.1-259,840.1-259,741V141z"/>
		<path id="XMLID_60_" d="M8,141h-200v600h-0.3c0,110.5,89.9,200,200.3,200h166h0.3C79.8,925.1,8,840.1,8,741L8,141L8,141z"/>
		<path id="XMLID_59_" d="M341,141v400h200V341C541,230.5,451.5,141,341,141z"/>
		<path id="XMLID_58_" d="M274,941V141H74v600h0.3c0,110.5,89.5,200,200,200l0,0"/>
	</g>
</g>
</svg>
